# xmcd
# 
# Track frame offsets:
#     150
#     26427
#     43877
#     56152
#     62035
#     71897
#     111062
#     127645
#     149667
#     173382
#     189432
#     202695
#     244015
# 
# Disc length: 3633
# 
# Revision: 7
# Processed by: cddbd v1.5.2PL0 Copyright (c) Steve Scherf et al.
# Submitted via: BonkEnc v1.0.8
# 
DISCID=b30e2f0d
DTITLE=Queen - Live At Wembley '86 [CD1]
DYEAR=1992
DGENRE=Rock
TTITLE0=One Vision
TTITLE1=Tie Your Mother Down
TTITLE2=In The Lap Of The Gods
TTITLE3=Seven Seas Of Rhye
TTITLE4=Tear It Up
TTITLE5=A Kind Of Magic
TTITLE6=Under Pressure
TTITLE7=Another One Bites The Dust
TTITLE8=Who Wants To Live Forever
TTITLE9=I Want To Break Free
TTITLE10=Impromptu
TTITLE11=Brighton Rock Solo
TTITLE12=Now I'm Here
EXTD=YEAR: 1992
EXTT0=
EXTT1=
EXTT2=
EXTT3=
EXTT4=
EXTT5=
EXTT6=
EXTT7=
EXTT8=
EXTT9=
EXTT10=
EXTT11=
EXTT12=
PLAYORDER=
